<svg width="81" height="33" viewBox="0 0 81 33" fill="none" xmlns="http://www.w3.org/2000/svg">
<g filter="url(#filter0_d_8_5052)">
<path d="M48.4526 20.575L51.2964 12.365H52.7319L49.0405 22.3181H47.8784L44.1938 12.365H45.6226L48.4526 20.575ZM55.2476 22.3181H53.9829V14.9216H55.2476V22.3181ZM53.8804 12.9597C53.8804 12.7546 53.9419 12.5815 54.0649 12.4402C54.1925 12.2989 54.3794 12.2283 54.6255 12.2283C54.8716 12.2283 55.0584 12.2989 55.186 12.4402C55.3136 12.5815 55.3774 12.7546 55.3774 12.9597C55.3774 13.1648 55.3136 13.3357 55.186 13.4724C55.0584 13.6091 54.8716 13.6775 54.6255 13.6775C54.3794 13.6775 54.1925 13.6091 54.0649 13.4724C53.9419 13.3357 53.8804 13.1648 53.8804 12.9597ZM63.5396 18.7019C63.5396 19.8321 63.2798 20.7413 62.7603 21.4294C62.2407 22.113 61.5435 22.4548 60.6685 22.4548C59.7342 22.4548 59.0119 22.1244 58.5015 21.4636L58.4399 22.3181H57.2778V11.8181H58.5425V15.7351C59.0529 15.1016 59.757 14.7849 60.6548 14.7849C61.5526 14.7849 62.2567 15.1244 62.7671 15.8035C63.2821 16.4825 63.5396 17.4122 63.5396 18.5925V18.7019ZM62.2749 18.5583C62.2749 17.697 62.1086 17.0317 61.7759 16.5623C61.4432 16.0929 60.9647 15.8582 60.3403 15.8582C59.5063 15.8582 58.9071 16.2455 58.5425 17.0203V20.2195C58.9299 20.9942 59.5337 21.3816 60.354 21.3816C60.9601 21.3816 61.4318 21.1469 61.769 20.6775C62.1063 20.2081 62.2749 19.5017 62.2749 18.5583ZM68.2085 22.4548C67.2059 22.4548 66.3901 22.1267 65.7612 21.4705C65.1323 20.8097 64.8179 19.9278 64.8179 18.825V18.5925C64.8179 17.8588 64.9569 17.2048 65.2349 16.6306C65.5174 16.0518 65.9093 15.6007 66.4106 15.2771C66.9165 14.949 67.4634 14.7849 68.0513 14.7849C69.0129 14.7849 69.7603 15.1016 70.2935 15.7351C70.8267 16.3686 71.0933 17.2755 71.0933 18.4558V18.9822H66.0825C66.1007 19.7113 66.3127 20.3015 66.7183 20.7527C67.1284 21.1993 67.6479 21.4226 68.2769 21.4226C68.7235 21.4226 69.1017 21.3315 69.4116 21.1492C69.7215 20.9669 69.9927 20.7253 70.2251 20.4246L70.9976 21.0261C70.3778 21.9786 69.4481 22.4548 68.2085 22.4548ZM68.0513 15.824C67.5409 15.824 67.1125 16.0108 66.7661 16.3845C66.4198 16.7537 66.2056 17.2732 66.1235 17.9431H69.8286V17.8474C69.7922 17.2048 69.619 16.7081 69.3091 16.3572C68.9992 16.0017 68.5799 15.824 68.0513 15.824ZM76.1382 16.0564C75.9468 16.0245 75.7394 16.0085 75.5161 16.0085C74.6867 16.0085 74.1239 16.3617 73.8276 17.0681V22.3181H72.563V14.9216H73.7935L73.814 15.7761C74.2287 15.1153 74.8166 14.7849 75.5776 14.7849C75.8237 14.7849 76.0106 14.8168 76.1382 14.8806V16.0564Z" fill="black"/>
</g>
<ellipse cx="15.5012" cy="16.2045" rx="15.5012" ry="16.2045" fill="#7C509A"/>
<path d="M20.3483 8.54461C17.3941 7.95486 14.3263 7.95486 11.3722 8.54461C10.0655 8.83949 8.41802 10.4908 8.13396 11.7882C7.62266 14.3242 7.62266 16.9191 8.13396 19.455C8.47483 20.7525 10.1223 22.4038 11.3722 22.6987C11.429 22.6987 11.4858 22.7576 11.4858 22.8166V26.5321C11.4858 26.709 11.713 26.8269 11.8267 26.65L13.531 24.8218C13.531 24.8218 14.8944 23.3474 15.1217 23.1115C15.1217 23.1115 15.1785 23.0525 15.2353 23.0525C16.9396 23.1115 18.7008 22.9346 20.4051 22.6397C21.7117 22.3448 23.3593 20.6935 23.6433 19.3961C24.1546 16.8601 24.1546 14.2652 23.6433 11.7293C23.3024 10.4908 21.6549 8.83949 20.3483 8.54461ZM20.4051 19.632C20.121 20.2217 19.7802 20.6935 19.2121 20.9884C19.0416 21.0474 18.8712 21.1063 18.7008 21.1653C18.4735 21.1063 18.3031 21.0474 18.1327 20.9884C16.3147 20.2217 14.6104 19.1601 13.2469 17.6268C12.5084 16.7422 11.8835 15.7396 11.3722 14.678C11.1449 14.1473 10.9177 13.6755 10.7473 13.1447C10.5768 12.6729 10.8609 12.2011 11.1449 11.8472C11.429 11.4934 11.7699 11.2575 12.1675 11.0805C12.4516 10.9036 12.7356 11.0216 12.9629 11.2575C13.4174 11.8472 13.8719 12.437 14.2127 13.0857C14.44 13.4985 14.3831 13.9703 13.9855 14.2652C13.8718 14.3242 13.815 14.3832 13.7014 14.5011C13.6446 14.5601 13.531 14.6191 13.4742 14.737C13.3606 14.9139 13.3606 15.0909 13.4174 15.2678C13.8718 16.6242 14.724 17.6858 16.0307 18.2755C16.2579 18.3935 16.4283 18.4524 16.7124 18.4524C17.1101 18.3935 17.2805 17.9217 17.5646 17.6858C17.8486 17.4499 18.1895 17.4499 18.5303 17.6268C18.8144 17.8037 19.0984 18.0396 19.4393 18.2755C19.7234 18.5114 20.0074 18.6883 20.2915 18.9242C20.4619 19.0422 20.5187 19.3371 20.4051 19.632ZM18.019 15.2088C17.9054 15.2088 17.9622 15.2088 18.019 15.2088C17.7918 15.2088 17.735 15.0909 17.6782 14.9139C17.6782 14.796 17.6782 14.6191 17.6214 14.5011C17.5646 14.2652 17.4509 14.0293 17.2237 13.8524C17.1101 13.7934 16.9964 13.7344 16.8828 13.6755C16.7124 13.6165 16.5988 13.6165 16.4283 13.6165C16.2579 13.5575 16.2011 13.4396 16.2011 13.2626C16.2011 13.1447 16.3715 13.0267 16.4851 13.0267C17.3941 13.0857 18.0758 13.6165 18.1895 14.737C18.1895 14.796 18.1895 14.9139 18.1895 14.9729C18.1895 15.0909 18.1327 15.2088 18.019 15.2088ZM17.4509 12.6139C17.1669 12.4959 16.8828 12.378 16.542 12.319C16.4283 12.319 16.2579 12.26 16.1443 12.26C15.9739 12.26 15.8602 12.1421 15.917 11.9652C15.917 11.7882 16.0307 11.6703 16.2011 11.7293C16.7692 11.7882 17.2805 11.9062 17.7918 12.1421C18.8144 12.6729 19.3825 13.5575 19.5529 14.737C19.5529 14.796 19.5529 14.855 19.5529 14.9139C19.5529 15.0319 19.5529 15.1498 19.5529 15.3268C19.5529 15.3857 19.5529 15.4447 19.5529 15.5037C19.4961 15.7396 19.0984 15.7986 19.0416 15.5037C19.0416 15.4447 18.9848 15.3268 18.9848 15.2678C18.9848 14.737 18.8712 14.2062 18.644 13.7344C18.3031 13.2037 17.9054 12.8498 17.4509 12.6139ZM20.5187 16.1524C20.3483 16.1524 20.2347 15.9755 20.2347 15.7986C20.2347 15.4447 20.1778 15.0909 20.121 14.737C19.8938 12.8498 18.4167 11.3164 16.6556 11.0216C16.3715 10.9626 16.0875 10.9626 15.8602 10.9036C15.6898 10.9036 15.4626 10.9036 15.4057 10.6677C15.3489 10.4908 15.5194 10.3139 15.6898 10.3139C15.7466 10.3139 15.8034 10.3139 15.8034 10.3139C15.917 10.3139 18.1327 10.3728 15.8034 10.3139C18.1895 10.3728 20.1778 12.0241 20.5755 14.5011C20.6323 14.9139 20.6891 15.3268 20.6891 15.7986C20.8028 15.9755 20.6891 16.1524 20.5187 16.1524Z" fill="white"/>
<defs>
<filter id="filter0_d_8_5052" x="40.1938" y="10.8181" width="39.9443" height="18.6367" filterUnits="userSpaceOnUse" color-interpolation-filters="sRGB">
<feFlood flood-opacity="0" result="BackgroundImageFix"/>
<feColorMatrix in="SourceAlpha" type="matrix" values="0 0 0 0 0 0 0 0 0 0 0 0 0 0 0 0 0 0 127 0" result="hardAlpha"/>
<feOffset dy="3"/>
<feGaussianBlur stdDeviation="2"/>
<feColorMatrix type="matrix" values="0 0 0 0 0 0 0 0 0 0 0 0 0 0 0 0 0 0 0.25 0"/>
<feBlend mode="normal" in2="BackgroundImageFix" result="effect1_dropShadow_8_5052"/>
<feBlend mode="normal" in="SourceGraphic" in2="effect1_dropShadow_8_5052" result="shape"/>
</filter>
</defs>
</svg>
