<svg width="296" height="46" viewBox="0 0 296 46" fill="none" xmlns="http://www.w3.org/2000/svg">
<rect x="155.662" width="140" height="46" fill="white"/>
<rect width="140" height="46" fill="white"/>
<g filter="url(#filter0_d_8_5043)">
<path d="M228.064 19.0964H224.865V27.9695H223.559V19.0964H220.367V18.0164H228.064V19.0964ZM231.728 28.1062C230.725 28.1062 229.91 27.7781 229.281 27.1218C228.652 26.461 228.337 25.5792 228.337 24.4763V24.2439C228.337 23.5102 228.476 22.8562 228.754 22.282C229.037 21.7032 229.429 21.252 229.93 20.9285C230.436 20.6003 230.983 20.4363 231.571 20.4363C232.532 20.4363 233.28 20.753 233.813 21.3865C234.346 22.0199 234.613 22.9268 234.613 24.1072V24.6335H229.602C229.62 25.3627 229.832 25.9529 230.238 26.4041C230.648 26.8507 231.167 27.074 231.796 27.074C232.243 27.074 232.621 26.9828 232.931 26.8005C233.241 26.6182 233.512 26.3767 233.745 26.0759L234.517 26.6775C233.897 27.63 232.968 28.1062 231.728 28.1062ZM231.571 21.4753C231.06 21.4753 230.632 21.6622 230.286 22.0359C229.939 22.405 229.725 22.9246 229.643 23.5945H233.348V23.4988C233.312 22.8562 233.139 22.3595 232.829 22.0085C232.519 21.6531 232.099 21.4753 231.571 21.4753ZM237.457 27.9695H236.192V17.4695H237.457V27.9695ZM242.556 28.1062C241.554 28.1062 240.738 27.7781 240.109 27.1218C239.48 26.461 239.166 25.5792 239.166 24.4763V24.2439C239.166 23.5102 239.305 22.8562 239.583 22.282C239.865 21.7032 240.257 21.252 240.758 20.9285C241.264 20.6003 241.811 20.4363 242.399 20.4363C243.361 20.4363 244.108 20.753 244.641 21.3865C245.174 22.0199 245.441 22.9268 245.441 24.1072V24.6335H240.43C240.448 25.3627 240.66 25.9529 241.066 26.4041C241.476 26.8507 241.996 27.074 242.625 27.074C243.071 27.074 243.449 26.9828 243.759 26.8005C244.069 26.6182 244.34 26.3767 244.573 26.0759L245.345 26.6775C244.725 27.63 243.796 28.1062 242.556 28.1062ZM242.399 21.4753C241.889 21.4753 241.46 21.6622 241.114 22.0359C240.767 22.405 240.553 22.9246 240.471 23.5945H244.176V23.4988C244.14 22.8562 243.967 22.3595 243.657 22.0085C243.347 21.6531 242.928 21.4753 242.399 21.4753ZM246.61 24.2097C246.61 23.0567 246.876 22.1407 247.41 21.4617C247.943 20.7781 248.649 20.4363 249.529 20.4363C250.431 20.4363 251.135 20.7553 251.641 21.3933L251.703 20.573H252.858V27.7917C252.858 28.7488 252.573 29.503 252.003 30.0544C251.438 30.6059 250.677 30.8816 249.72 30.8816C249.187 30.8816 248.665 30.7677 248.155 30.5398C247.644 30.3119 247.255 29.9998 246.986 29.6033L247.642 28.8445C248.184 29.5144 248.847 29.8494 249.631 29.8494C250.247 29.8494 250.725 29.6762 251.067 29.3298C251.413 28.9835 251.586 28.4958 251.586 27.8669V27.2312C251.081 27.8145 250.39 28.1062 249.515 28.1062C248.649 28.1062 247.947 27.7576 247.41 27.0603C246.876 26.363 246.61 25.4128 246.61 24.2097ZM247.881 24.3533C247.881 25.1873 248.052 25.8435 248.394 26.322C248.736 26.796 249.214 27.033 249.83 27.033C250.627 27.033 251.213 26.6707 251.586 25.946V22.5691C251.199 21.8627 250.618 21.5095 249.843 21.5095C249.228 21.5095 248.747 21.7488 248.401 22.2273C248.055 22.7058 247.881 23.4145 247.881 24.3533ZM258.347 21.7078C258.156 21.6759 257.948 21.6599 257.725 21.6599C256.896 21.6599 256.333 22.0131 256.037 22.7195V27.9695H254.772V20.573H256.002L256.023 21.4275C256.438 20.7667 257.026 20.4363 257.787 20.4363C258.033 20.4363 258.22 20.4682 258.347 20.532V21.7078ZM263.809 27.9695C263.736 27.8236 263.677 27.5639 263.631 27.1902C263.043 27.8009 262.342 28.1062 261.526 28.1062C260.797 28.1062 260.197 27.9011 259.728 27.491C259.263 27.0763 259.031 26.5522 259.031 25.9187C259.031 25.1485 259.322 24.5515 259.906 24.1277C260.494 23.6993 261.319 23.4851 262.38 23.4851H263.611V22.9041C263.611 22.462 263.479 22.1111 263.214 21.8513C262.95 21.587 262.56 21.4548 262.045 21.4548C261.594 21.4548 261.216 21.5688 260.911 21.7966C260.605 22.0245 260.453 22.3002 260.453 22.6238H259.181C259.181 22.2546 259.311 21.8992 259.571 21.5574C259.835 21.211 260.191 20.9376 260.637 20.7371C261.088 20.5365 261.583 20.4363 262.121 20.4363C262.973 20.4363 263.64 20.6505 264.124 21.0789C264.607 21.5027 264.857 22.0883 264.875 22.8357V26.24C264.875 26.919 264.962 27.4591 265.135 27.8601V27.9695H263.809ZM261.71 27.0056C262.107 27.0056 262.483 26.9031 262.838 26.698C263.194 26.4929 263.451 26.2263 263.611 25.8982V24.3806H262.62C261.07 24.3806 260.295 24.8341 260.295 25.741C260.295 26.1375 260.428 26.4473 260.692 26.6707C260.956 26.894 261.296 27.0056 261.71 27.0056ZM268.047 20.573L268.082 21.3933C268.624 20.7553 269.355 20.4363 270.276 20.4363C271.31 20.4363 272.014 20.8328 272.388 21.6257C272.634 21.2703 272.953 20.9832 273.345 20.7644C273.742 20.5457 274.209 20.4363 274.747 20.4363C276.369 20.4363 277.194 21.2953 277.221 23.0134V27.9695H275.957V23.0886C275.957 22.56 275.836 22.1658 275.594 21.906C275.353 21.6417 274.947 21.5095 274.377 21.5095C273.908 21.5095 273.518 21.6508 273.208 21.9333C272.899 22.2113 272.719 22.5873 272.668 23.0613V27.9695H271.397V23.1228C271.397 22.0473 270.871 21.5095 269.818 21.5095C268.988 21.5095 268.421 21.8627 268.116 22.5691V27.9695H266.851V20.573H268.047Z" fill="black"/>
</g>
<path d="M187.792 38.5732C196.352 38.5732 203.292 31.6337 203.292 23.0732C203.292 14.5128 196.352 7.57324 187.792 7.57324C179.232 7.57324 172.292 14.5128 172.292 23.0732C172.292 31.6337 179.232 38.5732 187.792 38.5732Z" fill="#039BE5"/>
<path d="M179.853 22.7374L195.787 16.9753C196.526 16.7247 197.172 17.1445 196.933 18.1933L196.934 18.1921L194.221 30.18C194.02 31.0299 193.481 31.2366 192.728 30.8362L188.597 27.9803L186.604 29.7809C186.384 29.9876 186.198 30.1619 185.771 30.1619L186.064 26.2185L193.721 19.7304C194.054 19.4553 193.647 19.3003 193.207 19.5741L183.745 25.1619L179.666 23.9684C178.78 23.7049 178.761 23.1378 179.853 22.7374Z" fill="white"/>
<defs>
<filter id="filter0_d_8_5043" x="216.367" y="16.4695" width="64.8545" height="21.4121" filterUnits="userSpaceOnUse" color-interpolation-filters="sRGB">
<feFlood flood-opacity="0" result="BackgroundImageFix"/>
<feColorMatrix in="SourceAlpha" type="matrix" values="0 0 0 0 0 0 0 0 0 0 0 0 0 0 0 0 0 0 127 0" result="hardAlpha"/>
<feOffset dy="3"/>
<feGaussianBlur stdDeviation="2"/>
<feColorMatrix type="matrix" values="0 0 0 0 0 0 0 0 0 0 0 0 0 0 0 0 0 0 0.25 0"/>
<feBlend mode="normal" in2="BackgroundImageFix" result="effect1_dropShadow_8_5043"/>
<feBlend mode="normal" in="SourceGraphic" in2="effect1_dropShadow_8_5043" result="shape"/>
</filter>
</defs>
</svg>
