<svg width="20" height="19" viewBox="0 0 20 19" fill="none" xmlns="http://www.w3.org/2000/svg">
<path d="M19.5283 3.76121C12.7425 2.4125 13.1818 2.48293 13.0281 2.50879C12.9789 2.51699 12.3767 2.63805 10.9729 2.91879C10.3844 1.22176 8.7698 0 6.875 0C4.97844 0 3.36258 1.22406 2.77543 2.92359L0.700156 2.51121C0.338437 2.43949 0 2.71602 0 3.08594V16.8359C0 17.1155 0.197539 17.3561 0.471719 17.4106C7.20016 18.748 6.75965 18.6616 6.80426 18.6671C6.94574 18.6845 6.50848 18.7568 13.1254 17.4334L19.2998 18.6606C19.6618 18.7325 20 18.4555 20 18.0859V4.33594C20 4.05637 19.8025 3.81574 19.5283 3.76121ZM6.875 1.17188C8.61965 1.17188 10.0391 2.59125 10.0391 4.33594C10.0391 5.80793 7.68367 9.54445 6.875 10.7808C6.06723 9.54582 3.71094 5.80824 3.71094 4.33594C3.71094 2.59125 5.13035 1.17188 6.875 1.17188ZM1.17188 3.79973L2.54727 4.07305C2.54203 4.16004 2.53906 4.24762 2.53906 4.3359C2.53906 5.31301 3.17824 6.88984 4.49316 9.15656C5.26098 10.4801 6.01789 11.6165 6.28906 12.0168V17.372L1.17188 16.355V3.79973ZM7.46094 12.0168C7.73207 11.6165 8.48902 10.4802 9.25684 9.15656C10.5718 6.88984 11.2109 5.31301 11.2109 4.33594C11.2109 4.24594 11.2079 4.15664 11.2024 4.06801L12.5391 3.80063V16.3556L7.46094 17.3712V12.0168ZM18.8281 17.3721L13.7109 16.355V3.79977L18.8281 4.81684V17.3721Z" fill="#DDA046"/>
</svg>
