<svg width="20" height="20" viewBox="0 0 20 20" fill="none" xmlns="http://www.w3.org/2000/svg">
<path d="M13.8828 19.4702H13.6422C12.3711 19.3632 11.1341 19.0128 10.0025 18.4389C7.5594 17.2823 5.39574 15.6348 3.65407 13.6048C2.32848 12.1123 1.27975 10.4065 0.554841 8.56385C0.153847 7.62643 -0.0337468 6.61552 0.00497761 5.60073C0.0487371 4.88548 0.370443 4.21327 0.904754 3.72063C1.18281 3.46509 1.45149 3.20346 1.71705 2.94183C1.92325 2.738 2.11383 2.56763 2.30753 2.38206C2.48876 2.18842 2.70949 2.03375 2.95561 1.92791C3.20172 1.82207 3.46781 1.7674 3.73686 1.7674C4.00591 1.7674 4.272 1.82207 4.51812 1.92791C4.76423 2.03375 4.98496 2.18842 5.16619 2.38206C5.54422 2.74408 5.91913 3.11219 6.29404 3.48334L6.63145 3.8119L7.38127 4.54508C7.58797 4.72237 7.75354 4.94049 7.86695 5.18493C7.98036 5.42937 8.03901 5.69452 8.03901 5.96275C8.03901 6.23098 7.98036 6.49613 7.86695 6.74057C7.75354 6.98501 7.58797 7.20313 7.38127 7.38042L7.04073 7.71203C6.74393 8.00104 6.45025 8.29005 6.15032 8.57602C6.43554 9.15667 6.79564 9.69952 7.22193 10.1914C8.15201 11.344 9.27218 12.3381 10.5367 13.1333C10.6836 13.2215 10.8492 13.3036 11.0304 13.3888L11.1959 13.4679C11.6021 13.0633 12.0145 12.6648 12.4269 12.2662C12.6079 12.0702 12.8293 11.9134 13.0766 11.8061C13.324 11.6988 13.5917 11.6434 13.8625 11.6434C14.1332 11.6434 14.401 11.6988 14.6483 11.8061C14.8956 11.9134 15.117 12.0702 15.298 12.2662C16.0458 12.9862 16.7893 13.7103 17.5287 14.4384C17.7315 14.6164 17.8937 14.8339 18.0047 15.0768C18.1157 15.3197 18.173 15.5826 18.173 15.8484C18.173 16.1143 18.1157 16.3772 18.0047 16.6201C17.8937 16.863 17.7315 17.0805 17.5287 17.2585C17.385 17.3985 17.2382 17.5384 17.0914 17.6783C16.807 17.9491 16.5352 18.2046 16.2884 18.4784C15.9867 18.8055 15.6148 19.0638 15.199 19.2352C14.7833 19.4066 14.3339 19.4868 13.8828 19.4702ZM1.72642 8.14098C2.40173 9.85257 3.37748 11.4368 4.61008 12.823C6.23904 14.72 8.26209 16.2597 10.5461 17.3407C11.526 17.8521 12.6031 18.1627 13.7109 18.2533C14.0145 18.2884 14.3222 18.2513 14.6078 18.1454C14.8935 18.0394 15.1485 17.8677 15.3512 17.6449C15.6292 17.3407 15.926 17.0577 16.2166 16.7839C16.3572 16.6501 16.4977 16.5162 16.6383 16.3793C16.7269 16.315 16.7988 16.2315 16.8484 16.1354C16.8979 16.0392 16.9237 15.9332 16.9237 15.8256C16.9237 15.7181 16.8979 15.612 16.8484 15.5159C16.7988 15.4198 16.7269 15.3362 16.6383 15.2719C15.901 14.5459 15.1595 13.8238 14.4139 13.1059C14.3491 13.0238 14.2658 12.9574 14.1705 12.9117C14.0752 12.8659 13.9703 12.8421 13.864 12.8421C13.7578 12.8421 13.6529 12.8659 13.5576 12.9117C13.4622 12.9574 13.3789 13.0238 13.3142 13.1059C12.8455 13.5592 12.3769 14.0003 11.9426 14.4505C11.8058 14.604 11.6183 14.7062 11.4125 14.7396C11.2066 14.7729 10.9952 14.7352 10.8148 14.6331C10.7023 14.5722 10.5867 14.5175 10.4742 14.4658C10.2774 14.3714 10.0743 14.2741 9.8744 14.1615C8.49301 13.2946 7.26933 12.2099 6.25342 10.952C5.70615 10.3226 5.25668 9.61844 4.91938 8.86198C4.8355 8.69208 4.81056 8.50025 4.84831 8.31535C4.88606 8.13045 4.98446 7.9625 5.1287 7.83676C5.47549 7.51124 5.81603 7.17964 6.15345 6.84499L6.49399 6.51035C6.88452 6.12703 6.88452 5.78022 6.49399 5.38777L5.75042 4.66068L5.40988 4.32908C5.0381 3.96097 4.66632 3.5959 4.29141 3.23996C4.226 3.15784 4.14216 3.09138 4.04632 3.04565C3.95047 2.99993 3.84515 2.97616 3.73842 2.97616C3.63169 2.97616 3.52638 2.99993 3.43053 3.04565C3.33468 3.09138 3.25085 3.15784 3.18544 3.23996C2.99173 3.4225 2.8074 3.60503 2.61995 3.78756C2.34502 4.05832 2.06696 4.32908 1.78266 4.59071C1.46422 4.87551 1.27441 5.27141 1.25467 5.69199C1.2306 6.52594 1.38818 7.3554 1.71705 8.12577L1.72642 8.14098ZM20 9.6773H18.7503C18.747 7.43445 17.8306 5.28438 16.2019 3.69844C14.5732 2.1125 12.3652 1.22011 10.0618 1.21689V0C12.6966 0.00322007 15.2225 1.02382 17.0855 2.83797C18.9486 4.65212 19.9967 7.11171 20 9.6773ZM16.6727 9.6773H15.423C15.4214 8.29324 14.856 6.96634 13.8509 5.98766C12.8459 5.00899 11.4832 4.45846 10.0618 4.45685V3.23996C11.8144 3.24238 13.4945 3.92137 14.7337 5.12808C15.9729 6.33479 16.6702 7.97075 16.6727 9.6773Z" fill="#DDA046"/>
</svg>
