<svg width="31" height="31" viewBox="0 0 31 31" fill="none" xmlns="http://www.w3.org/2000/svg">
<path d="M15.5 31C24.0604 31 31 24.0604 31 15.5C31 6.93959 24.0604 0 15.5 0C6.93959 0 0 6.93959 0 15.5C0 24.0604 6.93959 31 15.5 31Z" fill="#039BE5"/>
<path d="M7.56119 15.1642L23.4948 9.40207C24.2343 9.15148 24.8802 9.57127 24.6405 10.6201L24.6419 10.6188L21.9289 22.6068C21.7279 23.4567 21.1894 23.6634 20.4361 23.2629L16.3047 20.4071L14.312 22.2076C14.0916 22.4143 13.9057 22.5887 13.4788 22.5887L13.7721 18.6452L21.429 12.1572C21.7623 11.8821 21.3547 11.7271 20.9154 12.0009L11.453 17.5886L7.3739 16.3951C6.48839 16.1316 6.46911 15.5646 7.56119 15.1642Z" fill="white"/>
</svg>
