<svg width="31" height="33" viewBox="0 0 31 33" fill="none" xmlns="http://www.w3.org/2000/svg">
<ellipse cx="15.5012" cy="16.2045" rx="15.5012" ry="16.2045" fill="#7C509A"/>
<path d="M20.3483 8.54436C17.3941 7.95461 14.3263 7.95461 11.3722 8.54436C10.0655 8.83924 8.41802 10.4905 8.13396 11.788C7.62266 14.3239 7.62266 16.9188 8.13396 19.4548C8.47483 20.7522 10.1223 22.4035 11.3722 22.6984C11.429 22.6984 11.4858 22.7574 11.4858 22.8164V26.5318C11.4858 26.7087 11.713 26.8267 11.8267 26.6498L13.531 24.8215C13.531 24.8215 14.8944 23.3471 15.1217 23.1112C15.1217 23.1112 15.1785 23.0523 15.2353 23.0523C16.9396 23.1112 18.7008 22.9343 20.4051 22.6394C21.7117 22.3446 23.3593 20.6933 23.6433 19.3958C24.1546 16.8599 24.1546 14.265 23.6433 11.729C23.3024 10.4905 21.6549 8.83924 20.3483 8.54436ZM20.4051 19.6317C20.121 20.2215 19.7802 20.6933 19.2121 20.9881C19.0416 21.0471 18.8712 21.1061 18.7008 21.1651C18.4735 21.1061 18.3031 21.0471 18.1327 20.9881C16.3147 20.2215 14.6104 19.1599 13.2469 17.6265C12.5084 16.7419 11.8835 15.7393 11.3722 14.6778C11.1449 14.147 10.9177 13.6752 10.7473 13.1444C10.5768 12.6726 10.8609 12.2008 11.1449 11.847C11.429 11.4931 11.7699 11.2572 12.1675 11.0803C12.4516 10.9034 12.7356 11.0213 12.9629 11.2572C13.4174 11.847 13.8719 12.4367 14.2127 13.0855C14.44 13.4983 14.3831 13.9701 13.9855 14.265C13.8718 14.3239 13.815 14.3829 13.7014 14.5009C13.6446 14.5598 13.531 14.6188 13.4742 14.7368C13.3606 14.9137 13.3606 15.0906 13.4174 15.2675C13.8718 16.624 14.724 17.6855 16.0307 18.2753C16.2579 18.3932 16.4283 18.4522 16.7124 18.4522C17.1101 18.3932 17.2805 17.9214 17.5646 17.6855C17.8486 17.4496 18.1895 17.4496 18.5303 17.6265C18.8144 17.8035 19.0984 18.0394 19.4393 18.2753C19.7234 18.5112 20.0074 18.6881 20.2915 18.924C20.4619 19.042 20.5187 19.3368 20.4051 19.6317ZM18.019 15.2086C17.9054 15.2086 17.9622 15.2086 18.019 15.2086C17.7918 15.2086 17.735 15.0906 17.6782 14.9137C17.6782 14.7957 17.6782 14.6188 17.6214 14.5009C17.5646 14.265 17.4509 14.0291 17.2237 13.8521C17.1101 13.7932 16.9964 13.7342 16.8828 13.6752C16.7124 13.6162 16.5988 13.6162 16.4283 13.6162C16.2579 13.5573 16.2011 13.4393 16.2011 13.2624C16.2011 13.1444 16.3715 13.0265 16.4851 13.0265C17.3941 13.0855 18.0758 13.6162 18.1895 14.7368C18.1895 14.7957 18.1895 14.9137 18.1895 14.9727C18.1895 15.0906 18.1327 15.2086 18.019 15.2086ZM17.4509 12.6137C17.1669 12.4957 16.8828 12.3778 16.542 12.3188C16.4283 12.3188 16.2579 12.2598 16.1443 12.2598C15.9739 12.2598 15.8602 12.1419 15.917 11.9649C15.917 11.788 16.0307 11.6701 16.2011 11.729C16.7692 11.788 17.2805 11.906 17.7918 12.1419C18.8144 12.6726 19.3825 13.5573 19.5529 14.7368C19.5529 14.7957 19.5529 14.8547 19.5529 14.9137C19.5529 15.0316 19.5529 15.1496 19.5529 15.3265C19.5529 15.3855 19.5529 15.4445 19.5529 15.5034C19.4961 15.7393 19.0984 15.7983 19.0416 15.5034C19.0416 15.4445 18.9848 15.3265 18.9848 15.2675C18.9848 14.7368 18.8712 14.206 18.644 13.7342C18.3031 13.2034 17.9054 12.8496 17.4509 12.6137ZM20.5187 16.1522C20.3483 16.1522 20.2347 15.9752 20.2347 15.7983C20.2347 15.4445 20.1778 15.0906 20.121 14.7368C19.8938 12.8496 18.4167 11.3162 16.6556 11.0213C16.3715 10.9623 16.0875 10.9623 15.8602 10.9034C15.6898 10.9034 15.4626 10.9034 15.4057 10.6675C15.3489 10.4905 15.5194 10.3136 15.6898 10.3136C15.7466 10.3136 15.8034 10.3136 15.8034 10.3136C15.917 10.3136 18.1327 10.3726 15.8034 10.3136C18.1895 10.3726 20.1778 12.0239 20.5755 14.5009C20.6323 14.9137 20.6891 15.3265 20.6891 15.7983C20.8028 15.9752 20.6891 16.1522 20.5187 16.1522Z" fill="white"/>
</svg>
